<?xml version="1.0" encoding="utf-8"?>
<!-- Generator: Adobe Illustrator 23.0.1, SVG Export Plug-In . SVG Version: 6.00 Build 0)  -->
<svg version="1.1" id="oceanside_1_" xmlns="http://www.w3.org/2000/svg" xmlns:xlink="http://www.w3.org/1999/xlink" x="0px"
	 y="0px" viewBox="0 0 78.7 15" style="enable-background:new 0 0 78.7 15;" xml:space="preserve">
<style type="text/css">
	.st0{fill:#FFFFFF;}
</style>
<g>
	<path class="st0" d="M9.1,5.3c0.8,0.4,1.4,1,1.8,1.8c0.4,0.8,0.7,1.7,0.7,2.6s-0.2,1.9-0.7,2.6c-0.4,0.8-1,1.4-1.8,1.8
		c-0.8,0.4-1.6,0.6-2.5,0.6c-0.9,0-1.8-0.2-2.5-0.6c-0.8-0.4-1.4-1-1.8-1.8s-0.7-1.7-0.7-2.6s0.2-1.9,0.7-2.6s1-1.4,1.8-1.8
		c0.8-0.4,1.6-0.6,2.5-0.6C7.5,4.7,8.4,4.9,9.1,5.3z M5,6.9C4.6,7.2,4.2,7.5,4,8C3.8,8.5,3.6,9.1,3.6,9.8S3.8,11,4,11.5
		s0.6,0.9,1,1.1S6,13,6.6,13c0.6,0,1.1-0.1,1.5-0.4s0.8-0.6,1-1.1s0.4-1.1,0.4-1.7S9.4,8.5,9.2,8c-0.2-0.5-0.6-0.9-1-1.1
		s-1-0.4-1.5-0.4C6,6.5,5.5,6.6,5,6.9z"/>
	<path class="st0" d="M21.5,14.8h-2L15,8v6.8h-2v-10h2l4.5,6.8V4.8h2V14.8z"/>
	<path class="st0" d="M25.3,13.3h3.3v1.5h-5.3v-10h2V13.3z"/>
	<path class="st0" d="M37.9,4.8l-3.4,6.5v3.5h-2v-3.5l-3.4-6.5h2.3l2.1,4.4l2.1-4.4H37.9z"/>
	<path class="st0" d="M58,0.5l-3.5,14.2H51L48.3,4.5l-2.7,10.3h-3.5L38.7,0.5h3.1l2.2,11l2.8-11h3.1l2.8,11l2.2-11H58z"/>
	<path class="st0" d="M68.6,11.9h-5.7l-1,2.9h-3l5.2-14.1h3.2l5.2,14.1h-3L68.6,11.9z M67.8,9.8l-2.1-6l-2.1,6H67.8z"/>
	<path class="st0" d="M77,0.5v14.2h-2.8V0.5H77z"/>
</g>
</svg>
