<?xml version="1.0" encoding="utf-8"?>
<!-- Generator: Adobe Illustrator 23.0.1, SVG Export Plug-In . SVG Version: 6.00 Build 0)  -->
<svg version="1.1" id="Layer_1" xmlns="http://www.w3.org/2000/svg" xmlns:xlink="http://www.w3.org/1999/xlink" x="0px" y="0px"
	 viewBox="0 0 56 56" style="enable-background:new 0 0 56 56;" xml:space="preserve">
<path d="M0,0.2h5.8v23H0V0.2z"/>
<path d="M0,0h23.2v5.8H0V0z"/>
<path d="M32.8,0H56v5.8H32.8V0z"/>
<path d="M50.2,0H56v23.2h-5.8V0z"/>
<path d="M50.2,32.8H56V56h-5.8V32.8z"/>
<path d="M32.8,50.2H56V56H32.8V50.2z"/>
<path d="M0,50.2h23.2V56H0V50.2z"/>
<path d="M0,32.8h5.8V56H0V32.8z"/>
<g>
	<path d="M30,28.8v18.4h-4.4V28.8H30z"/>
</g>
<path d="M35.8,9.6l-2.4,13.3L30.2,9.6h-4.9l-3.2,13.3L19.8,9.6h-4.8L19.3,28h5.5l0.4-1.8h5.1l0.4,1.8h5.5l4.4-18.4H35.8z M26.3,21.8
	l1.5-6.1l1.5,6.1H26.3z"/>
</svg>
